# OBJ export from Surface_mesh
v 0.0000000000 -1.0000000000 0.0000000000
v 0.7236070037 -0.4472199976 0.5257250071
v -0.2763879895 -0.4472199976 0.8506489992
v -0.8944259882 -0.4472160041 0.0000000000
v -0.2763879895 -0.4472199976 -0.8506489992
v 0.7236070037 -0.4472199976 -0.5257250071
v 0.2763879895 0.4472199976 0.8506489992
v -0.7236070037 0.4472199976 0.5257250071
v -0.7236070037 0.4472199976 -0.5257250071
v 0.2763879895 0.4472199976 -0.8506489992
v 0.8944259882 0.4472160041 0.0000000000
v 0.0000000000 1.0000000000 0.0000000000
v 0.4253230095 -0.8506540060 0.3090110123
v 0.2628690004 -0.5257380009 0.8090119958
v -0.1624560058 -0.8506540060 0.4999949932
v 0.4253230095 -0.8506540060 -0.3090110123
v 0.8506479859 -0.5257359743 0.0000000000
v -0.6881890297 -0.5257359743 0.4999969900
v -0.5257300138 -0.8506519794 0.0000000000
v -0.6881890297 -0.5257359743 -0.4999969900
v -0.1624560058 -0.8506540060 -0.4999949932
v 0.2628690004 -0.5257380009 -0.8090119958
v 0.9510579705 0.0000000000 -0.3090130091
v 0.9510579705 0.0000000000 0.3090130091
v 0.5877860188 0.0000000000 0.8090170026
v 0.0000000000 0.0000000000 1.0000000000
v -0.5877860188 0.0000000000 0.8090170026
v -0.9510579705 0.0000000000 0.3090130091
v -0.9510579705 0.0000000000 -0.3090130091
v -0.5877860188 0.0000000000 -0.8090170026
v 0.0000000000 0.0000000000 -1.0000000000
v 0.5877860188 0.0000000000 -0.8090170026
v 0.6881890297 0.5257359743 0.4999969900
v -0.2628690004 0.5257380009 0.8090119958
v -0.8506479859 0.5257359743 0.0000000000
v -0.2628690004 0.5257380009 -0.8090119958
v 0.6881890297 0.5257359743 -0.4999969900
v 0.5257300138 0.8506519794 0.0000000000
v 0.1624560058 0.8506540060 0.4999949932
v -0.4253230095 0.8506540060 0.3090110123
v -0.4253230095 0.8506540060 -0.3090110123
v 0.1624560058 0.8506540060 -0.4999949932
vn -0.0000011380 -0.9999999404 0.0000000053
vn 0.7236075997 -0.4472178221 0.5257263780
vn -0.2763894200 -0.4472188950 0.8506492376
vn -0.8944261670 -0.4472155273 0.0000000000
vn -0.2763893902 -0.4472188950 -0.8506491780
vn 0.7236075997 -0.4472178221 -0.5257263780
vn 0.2763894200 0.4472188950 0.8506492376
vn -0.7236075997 0.4472178221 0.5257263780
vn -0.7236076593 0.4472177625 -0.5257263184
vn 0.2763893902 0.4472188950 -0.8506492376
vn 0.8944261670 0.4472155273 0.0000000000
vn 0.0000011327 0.9999999404 0.0000000000
vn 0.4253234565 -0.8506533504 0.3090126514
vn 0.2628687024 -0.5257358551 0.8090128303
vn -0.1624573320 -0.8506534100 0.4999962747
vn 0.4253234565 -0.8506533504 -0.3090126514
vn 0.8506488204 -0.5257344246 -0.0000000053
vn -0.6881891489 -0.5257344842 0.4999990165
vn -0.5257295966 -0.8506516218 -0.0000000053
vn -0.6881891489 -0.5257344842 -0.4999989569
vn -0.1624573469 -0.8506534100 -0.4999963045
vn 0.2628687024 -0.5257357955 -0.8090128303
vn 0.9510570168 -0.0000000637 -0.3090153933
vn 0.9510570168 -0.0000000610 0.3090153635
vn 0.5877860785 0.0000005041 0.8090162873
vn 0.0000000053 0.0000000000 1.0000000000
vn -0.5877860785 -0.0000004988 0.8090162873
vn -0.9510570168 0.0000000584 0.3090153635
vn -0.9510570168 0.0000000584 -0.3090153635
vn -0.5877861381 -0.0000005014 -0.8090162873
vn -0.0000000046 0.0000000000 -1.0000000000
vn 0.5877860785 0.0000005067 -0.8090162873
vn 0.6881891489 0.5257344842 0.4999990165
vn -0.2628687024 0.5257358551 0.8090128303
vn -0.8506488204 0.5257344842 0.0000000053
vn -0.2628687024 0.5257358551 -0.8090128303
vn 0.6881891489 0.5257344842 -0.4999990165
vn 0.5257295966 0.8506516218 0.0000000000
vn 0.1624573320 0.8506534100 0.4999962747
vn -0.4253234565 0.8506533504 0.3090126514
vn -0.4253234565 0.8506533504 -0.3090126514
vn 0.1624573320 0.8506534100 -0.4999962747
vt 0.0000000000 0.0000000000 0.0000000000
vt 0.0000000000 0.0000000000 0.0000000000
vt 0.0000000000 0.0000000000 0.0000000000
vt 0.0000000000 0.0000000000 0.0000000000
vt 0.0000000000 0.0000000000 0.0000000000
vt 0.0000000000 0.0000000000 0.0000000000
vt 0.0000000000 0.0000000000 0.0000000000
vt 0.0000000000 0.0000000000 0.0000000000
vt 0.0000000000 0.0000000000 0.0000000000
vt 0.0000000000 0.0000000000 0.0000000000
vt 0.0000000000 0.0000000000 0.0000000000
vt 0.0000000000 0.0000000000 0.0000000000
vt 0.0000000000 0.0000000000 0.0000000000
vt 0.0000000000 0.0000000000 0.0000000000
vt 0.0000000000 0.0000000000 0.0000000000
vt 0.0000000000 0.0000000000 0.0000000000
vt 0.0000000000 0.0000000000 0.0000000000
vt 0.0000000000 0.0000000000 0.0000000000
vt 0.0000000000 0.0000000000 0.0000000000
vt 0.0000000000 0.0000000000 0.0000000000
vt 0.0000000000 0.0000000000 0.0000000000
vt 0.0000000000 0.0000000000 0.0000000000
vt 0.0000000000 0.0000000000 0.0000000000
vt 0.0000000000 0.0000000000 0.0000000000
vt 0.0000000000 0.0000000000 0.0000000000
vt 0.0000000000 0.0000000000 0.0000000000
vt 0.0000000000 0.0000000000 0.0000000000
vt 0.0000000000 0.0000000000 0.0000000000
vt 0.0000000000 0.0000000000 0.0000000000
vt 0.0000000000 0.0000000000 0.0000000000
vt 0.0000000000 0.0000000000 0.0000000000
vt 0.0000000000 0.0000000000 0.0000000000
vt 0.0000000000 0.0000000000 0.0000000000
vt 0.0000000000 0.0000000000 0.0000000000
vt 0.0000000000 0.0000000000 0.0000000000
vt 0.0000000000 0.0000000000 0.0000000000
vt 0.0000000000 0.0000000000 0.0000000000
vt 0.0000000000 0.0000000000 0.0000000000
vt 0.0000000000 0.0000000000 0.0000000000
vt 0.0000000000 0.0000000000 0.0000000000
vt 0.0000000000 0.0000000000 0.0000000000
vt 0.0000000000 0.0000000000 0.0000000000
vt 0.0000000000 0.0000000000 0.0000000000
vt 0.0000000000 0.0000000000 0.0000000000
vt 0.0000000000 0.0000000000 0.0000000000
vt 0.0000000000 0.0000000000 0.0000000000
vt 0.0000000000 0.0000000000 0.0000000000
vt 0.0000000000 0.0000000000 0.0000000000
vt 0.0000000000 0.0000000000 0.0000000000
vt 0.0000000000 0.0000000000 0.0000000000
vt 0.0000000000 0.0000000000 0.0000000000
vt 0.0000000000 0.0000000000 0.0000000000
vt 0.0000000000 0.0000000000 0.0000000000
vt 0.0000000000 0.0000000000 0.0000000000
vt 0.0000000000 0.0000000000 0.0000000000
vt 0.0000000000 0.0000000000 0.0000000000
vt 0.0000000000 0.0000000000 0.0000000000
vt 0.0000000000 0.0000000000 0.0000000000
vt 0.0000000000 0.0000000000 0.0000000000
vt 0.0000000000 0.0000000000 0.0000000000
vt 0.0000000000 0.0000000000 0.0000000000
vt 0.0000000000 0.0000000000 0.0000000000
vt 0.0000000000 0.0000000000 0.0000000000
vt 0.0000000000 0.0000000000 0.0000000000
vt 0.0000000000 0.0000000000 0.0000000000
vt 0.0000000000 0.0000000000 0.0000000000
vt 0.0000000000 0.0000000000 0.0000000000
vt 0.0000000000 0.0000000000 0.0000000000
vt 0.0000000000 0.0000000000 0.0000000000
vt 0.0000000000 0.0000000000 0.0000000000
vt 0.0000000000 0.0000000000 0.0000000000
vt 0.0000000000 0.0000000000 0.0000000000
vt 0.0000000000 0.0000000000 0.0000000000
vt 0.0000000000 0.0000000000 0.0000000000
vt 0.0000000000 0.0000000000 0.0000000000
vt 0.0000000000 0.0000000000 0.0000000000
vt 0.0000000000 0.0000000000 0.0000000000
vt 0.0000000000 0.0000000000 0.0000000000
vt 0.0000000000 0.0000000000 0.0000000000
vt 0.0000000000 0.0000000000 0.0000000000
vt 0.0000000000 0.0000000000 0.0000000000
vt 0.0000000000 0.0000000000 0.0000000000
vt 0.0000000000 0.0000000000 0.0000000000
vt 0.0000000000 0.0000000000 0.0000000000
vt 0.0000000000 0.0000000000 0.0000000000
vt 0.0000000000 0.0000000000 0.0000000000
vt 0.0000000000 0.0000000000 0.0000000000
vt 0.0000000000 0.0000000000 0.0000000000
vt 0.0000000000 0.0000000000 0.0000000000
vt 0.0000000000 0.0000000000 0.0000000000
vt 0.0000000000 0.0000000000 0.0000000000
vt 0.0000000000 0.0000000000 0.0000000000
vt 0.0000000000 0.0000000000 0.0000000000
vt 0.0000000000 0.0000000000 0.0000000000
vt 0.0000000000 0.0000000000 0.0000000000
vt 0.0000000000 0.0000000000 0.0000000000
vt 0.0000000000 0.0000000000 0.0000000000
vt 0.0000000000 0.0000000000 0.0000000000
vt 0.0000000000 0.0000000000 0.0000000000
vt 0.0000000000 0.0000000000 0.0000000000
vt 0.0000000000 0.0000000000 0.0000000000
vt 0.0000000000 0.0000000000 0.0000000000
vt 0.0000000000 0.0000000000 0.0000000000
vt 0.0000000000 0.0000000000 0.0000000000
vt 0.0000000000 0.0000000000 0.0000000000
vt 0.0000000000 0.0000000000 0.0000000000
vt 0.0000000000 0.0000000000 0.0000000000
vt 0.0000000000 0.0000000000 0.0000000000
vt 0.0000000000 0.0000000000 0.0000000000
vt 0.0000000000 0.0000000000 0.0000000000
vt 0.0000000000 0.0000000000 0.0000000000
vt 0.0000000000 0.0000000000 0.0000000000
vt 0.0000000000 0.0000000000 0.0000000000
vt 0.0000000000 0.0000000000 0.0000000000
vt 0.0000000000 0.0000000000 0.0000000000
vt 0.0000000000 0.0000000000 0.0000000000
vt 0.0000000000 0.0000000000 0.0000000000
vt 0.0000000000 0.0000000000 0.0000000000
vt 0.0000000000 0.0000000000 0.0000000000
vt 0.0000000000 0.0000000000 0.0000000000
vt 0.0000000000 0.0000000000 0.0000000000
vt 0.0000000000 0.0000000000 0.0000000000
vt 0.0000000000 0.0000000000 0.0000000000
vt 0.0000000000 0.0000000000 0.0000000000
vt 0.0000000000 0.0000000000 0.0000000000
vt 0.0000000000 0.0000000000 0.0000000000
vt 0.0000000000 0.0000000000 0.0000000000
vt 0.0000000000 0.0000000000 0.0000000000
vt 0.0000000000 0.0000000000 0.0000000000
vt 0.0000000000 0.0000000000 0.0000000000
vt 0.0000000000 0.0000000000 0.0000000000
vt 0.0000000000 0.0000000000 0.0000000000
vt 0.0000000000 0.0000000000 0.0000000000
vt 0.0000000000 0.0000000000 0.0000000000
vt 0.0000000000 0.0000000000 0.0000000000
vt 0.0000000000 0.0000000000 0.0000000000
vt 0.0000000000 0.0000000000 0.0000000000
vt 0.0000000000 0.0000000000 0.0000000000
vt 0.0000000000 0.0000000000 0.0000000000
vt 0.0000000000 0.0000000000 0.0000000000
vt 0.0000000000 0.0000000000 0.0000000000
vt 0.0000000000 0.0000000000 0.0000000000
vt 0.0000000000 0.0000000000 0.0000000000
vt 0.0000000000 0.0000000000 0.0000000000
vt 0.0000000000 0.0000000000 0.0000000000
vt 0.0000000000 0.0000000000 0.0000000000
vt 0.0000000000 0.0000000000 0.0000000000
vt 0.0000000000 0.0000000000 0.0000000000
vt 0.0000000000 0.0000000000 0.0000000000
vt 0.0000000000 0.0000000000 0.0000000000
vt 0.0000000000 0.0000000000 0.0000000000
vt 0.0000000000 0.0000000000 0.0000000000
vt 0.0000000000 0.0000000000 0.0000000000
vt 0.0000000000 0.0000000000 0.0000000000
vt 0.0000000000 0.0000000000 0.0000000000
vt 0.0000000000 0.0000000000 0.0000000000
vt 0.0000000000 0.0000000000 0.0000000000
vt 0.0000000000 0.0000000000 0.0000000000
vt 0.0000000000 0.0000000000 0.0000000000
vt 0.0000000000 0.0000000000 0.0000000000
vt 0.0000000000 0.0000000000 0.0000000000
vt 0.0000000000 0.0000000000 0.0000000000
vt 0.0000000000 0.0000000000 0.0000000000
vt 0.0000000000 0.0000000000 0.0000000000
vt 0.0000000000 0.0000000000 0.0000000000
vt 0.0000000000 0.0000000000 0.0000000000
vt 0.0000000000 0.0000000000 0.0000000000
vt 0.0000000000 0.0000000000 0.0000000000
vt 0.0000000000 0.0000000000 0.0000000000
vt 0.0000000000 0.0000000000 0.0000000000
vt 0.0000000000 0.0000000000 0.0000000000
vt 0.0000000000 0.0000000000 0.0000000000
vt 0.0000000000 0.0000000000 0.0000000000
vt 0.0000000000 0.0000000000 0.0000000000
vt 0.0000000000 0.0000000000 0.0000000000
vt 0.0000000000 0.0000000000 0.0000000000
vt 0.0000000000 0.0000000000 0.0000000000
vt 0.0000000000 0.0000000000 0.0000000000
vt 0.0000000000 0.0000000000 0.0000000000
vt 0.0000000000 0.0000000000 0.0000000000
vt 0.0000000000 0.0000000000 0.0000000000
vt 0.0000000000 0.0000000000 0.0000000000
vt 0.0000000000 0.0000000000 0.0000000000
vt 0.0000000000 0.0000000000 0.0000000000
vt 0.0000000000 0.0000000000 0.0000000000
vt 0.0000000000 0.0000000000 0.0000000000
vt 0.0000000000 0.0000000000 0.0000000000
vt 0.0000000000 0.0000000000 0.0000000000
vt 0.0000000000 0.0000000000 0.0000000000
vt 0.0000000000 0.0000000000 0.0000000000
vt 0.0000000000 0.0000000000 0.0000000000
vt 0.0000000000 0.0000000000 0.0000000000
vt 0.0000000000 0.0000000000 0.0000000000
vt 0.0000000000 0.0000000000 0.0000000000
vt 0.0000000000 0.0000000000 0.0000000000
vt 0.0000000000 0.0000000000 0.0000000000
vt 0.0000000000 0.0000000000 0.0000000000
vt 0.0000000000 0.0000000000 0.0000000000
vt 0.0000000000 0.0000000000 0.0000000000
vt 0.0000000000 0.0000000000 0.0000000000
vt 0.0000000000 0.0000000000 0.0000000000
vt 0.0000000000 0.0000000000 0.0000000000
vt 0.0000000000 0.0000000000 0.0000000000
vt 0.0000000000 0.0000000000 0.0000000000
vt 0.0000000000 0.0000000000 0.0000000000
vt 0.0000000000 0.0000000000 0.0000000000
vt 0.0000000000 0.0000000000 0.0000000000
vt 0.0000000000 0.0000000000 0.0000000000
vt 0.0000000000 0.0000000000 0.0000000000
vt 0.0000000000 0.0000000000 0.0000000000
vt 0.0000000000 0.0000000000 0.0000000000
vt 0.0000000000 0.0000000000 0.0000000000
vt 0.0000000000 0.0000000000 0.0000000000
vt 0.0000000000 0.0000000000 0.0000000000
vt 0.0000000000 0.0000000000 0.0000000000
vt 0.0000000000 0.0000000000 0.0000000000
vt 0.0000000000 0.0000000000 0.0000000000
vt 0.0000000000 0.0000000000 0.0000000000
vt 0.0000000000 0.0000000000 0.0000000000
vt 0.0000000000 0.0000000000 0.0000000000
vt 0.0000000000 0.0000000000 0.0000000000
vt 0.0000000000 0.0000000000 0.0000000000
vt 0.0000000000 0.0000000000 0.0000000000
vt 0.0000000000 0.0000000000 0.0000000000
vt 0.0000000000 0.0000000000 0.0000000000
vt 0.0000000000 0.0000000000 0.0000000000
vt 0.0000000000 0.0000000000 0.0000000000
vt 0.0000000000 0.0000000000 0.0000000000
vt 0.0000000000 0.0000000000 0.0000000000
vt 0.0000000000 0.0000000000 0.0000000000
vt 0.0000000000 0.0000000000 0.0000000000
vt 0.0000000000 0.0000000000 0.0000000000
vt 0.0000000000 0.0000000000 0.0000000000
vt 0.0000000000 0.0000000000 0.0000000000
vt 0.0000000000 0.0000000000 0.0000000000
vt 0.0000000000 0.0000000000 0.0000000000
vt 0.0000000000 0.0000000000 0.0000000000
vt 0.0000000000 0.0000000000 0.0000000000
vt 0.0000000000 0.0000000000 0.0000000000
vt 0.0000000000 0.0000000000 0.0000000000
f 1/5/1 13/1/13 15/3/15
f 2/11/2 13/7/13 17/9/17
f 1/15/1 15/6/15 19/13/19
f 1/19/1 19/16/19 21/17/21
f 1/23/1 21/20/21 16/21/16
f 2/27/2 17/12/17 24/25/24
f 3/33/3 14/29/14 26/31/26
f 4/39/4 18/35/18 28/37/28
f 5/45/5 20/41/20 30/43/30
f 6/51/6 22/47/22 32/49/32
f 2/55/2 24/28/24 25/53/25
f 3/59/3 26/34/26 27/57/27
f 4/63/4 28/40/28 29/61/29
f 5/67/5 30/46/30 31/65/31
f 6/71/6 32/52/32 23/69/23
f 7/77/7 33/73/33 39/75/39
f 8/83/8 34/79/34 40/81/40
f 9/89/9 35/85/35 41/87/41
f 10/95/10 36/91/36 42/93/42
f 11/101/11 37/97/37 38/99/38
f 15/105/15 14/103/14 3/30/3
f 15/104/15 13/4/13 14/107/14
f 13/108/13 2/8/2 14/109/14
f 17/115/17 16/111/16 6/113/6
f 17/112/17 13/10/13 16/117/16
f 13/118/13 1/2/1 16/24/16
f 19/121/19 18/119/18 4/36/4
f 19/120/19 15/14/15 18/123/18
f 15/124/15 3/106/3 18/125/18
f 21/129/21 20/127/20 5/42/5
f 21/128/21 19/18/19 20/131/20
f 19/132/19 4/122/4 20/133/20
f 16/114/16 22/135/22 6/48/6
f 16/136/16 21/22/21 22/137/22
f 21/138/21 5/130/5 22/139/22
f 24/145/24 23/141/23 11/143/11
f 24/142/24 17/26/17 23/147/23
f 17/148/17 6/116/6 23/72/23
f 26/153/26 25/149/25 7/151/7
f 26/150/26 14/32/14 25/155/25
f 14/156/14 2/110/2 25/56/25
f 28/161/28 27/157/27 8/159/8
f 28/158/28 18/38/18 27/163/27
f 18/164/18 3/126/3 27/60/27
f 30/169/30 29/165/29 9/167/9
f 30/166/30 20/44/20 29/171/29
f 20/172/20 4/134/4 29/64/29
f 32/177/32 31/173/31 10/175/10
f 32/174/32 22/50/22 31/179/31
f 22/180/22 5/140/5 31/68/31
f 25/152/25 33/181/33 7/74/7
f 25/182/25 24/54/24 33/183/33
f 24/184/24 11/146/11 33/185/33
f 27/160/27 34/187/34 8/80/8
f 27/188/27 26/58/26 34/189/34
f 26/190/26 7/154/7 34/191/34
f 29/168/29 35/193/35 9/86/9
f 29/194/29 28/62/28 35/195/35
f 28/196/28 8/162/8 35/197/35
f 31/176/31 36/199/36 10/92/10
f 31/200/31 30/66/30 36/201/36
f 30/202/30 9/170/9 36/203/36
f 23/144/23 37/205/37 11/98/11
f 23/206/23 32/70/32 37/207/37
f 32/208/32 10/178/10 37/209/37
f 39/215/39 38/211/38 12/213/12
f 39/212/39 33/76/33 38/217/38
f 33/218/33 11/186/11 38/102/38
f 40/221/40 39/219/39 12/216/12
f 40/220/40 34/82/34 39/223/39
f 34/224/34 7/192/7 39/78/39
f 41/227/41 40/225/40 12/222/12
f 41/226/41 35/88/35 40/229/40
f 35/230/35 8/198/8 40/84/40
f 42/233/42 41/231/41 12/228/12
f 42/232/42 36/94/36 41/235/41
f 36/236/36 9/204/9 41/90/41
f 38/214/38 42/237/42 12/234/12
f 38/238/38 37/100/37 42/239/42
f 37/240/37 10/210/10 42/96/42
